<svg width="30" height="36" viewBox="0 0 30 36" fill="none" xmlns="http://www.w3.org/2000/svg">
<path d="M12.0388 33.0277L7.01378 26.9977L6.87503 26.25L5.7644 25.4977L2.4769 21.5527C0.841277 19.59 0.841277 16.4085 2.4769 14.4465L5.7644 10.5015L6.87503 9.75L7.0144 9.00225L12.0394 2.97225C13.675 1.0095 16.3263 1.0095 17.9613 2.97225L22.9863 9.00225L23.125 9.75L24.2357 10.5022L27.5231 14.4472C29.1588 16.41 29.1588 19.5915 27.5231 21.5535L24.2357 25.4985L23.125 26.25L22.9857 26.9977L17.9607 33.0277C16.3257 34.9897 13.6744 34.9897 12.0388 33.0277Z" fill="#95411A"/>
<path opacity="0.05" d="M22.3688 8.25751C21.2688 8.31001 20.2438 8.85001 19.475 9.78751L15.2188 14.865C15.1625 14.94 15.0813 14.9775 15 14.9775C14.9188 14.9775 14.8438 14.94 14.7813 14.865L10.5313 9.79501C9.75626 8.85001 8.73126 8.31001 7.63126 8.25751L5.13751 11.25H7.43751C7.93751 11.25 8.40626 11.4825 8.76251 11.91L13.0125 16.995C13.5438 17.625 14.25 17.9775 15 17.9775C15.75 17.9775 16.4563 17.625 16.9875 16.995L21.2313 11.91C21.5938 11.4825 22.0625 11.25 22.5625 11.25H24.8625L22.3688 8.25751ZM22.5625 24.75C22.0625 24.75 21.5938 24.5175 21.2375 24.09L16.9875 19.005C16.4563 18.375 15.75 18.0225 15 18.0225C14.25 18.0225 13.5438 18.375 13.0125 19.005L8.76876 24.09C8.40626 24.5175 7.93751 24.75 7.43751 24.75H5.13751L7.63126 27.7425C8.73126 27.69 9.75626 27.15 10.525 26.2125L14.7813 21.135C14.8375 21.06 14.9188 21.0225 15 21.0225C15.0813 21.0225 15.1563 21.06 15.2188 21.135L19.4688 26.205C20.2438 27.15 21.2688 27.69 22.3688 27.7425L24.8625 24.75H22.5625Z" fill="#95411A"/>
<path opacity="0.07" d="M22.675 8.625H22.5625C21.475 8.625 20.45 9.135 19.6938 10.0575L15.4438 15.135C15.325 15.2775 15.1625 15.3525 15 15.3525C14.8375 15.3525 14.675 15.2775 14.5563 15.135L10.3125 10.0575C9.55001 9.135 8.52501 8.625 7.43751 8.625H7.32501L5.45001 10.875H7.43751C8.01876 10.875 8.56876 11.145 8.98751 11.64L13.2375 16.725C13.7063 17.295 14.3313 17.6025 15 17.6025C15.6688 17.6025 16.2938 17.295 16.7625 16.725L21.0125 11.6475C21.4313 11.145 21.9813 10.875 22.5625 10.875H24.55L22.675 8.625ZM22.5625 25.125C21.9813 25.125 21.4313 24.855 21.0125 24.36L16.7625 19.275C16.2938 18.705 15.6688 18.3975 15 18.3975C14.3313 18.3975 13.7063 18.705 13.2375 19.275L8.98751 24.3525C8.56876 24.855 8.01876 25.125 7.43751 25.125H5.45001L7.32501 27.375H7.43751C8.52501 27.375 9.55001 26.865 10.3063 25.9425L14.5563 20.865C14.675 20.7225 14.8375 20.6475 15 20.6475C15.1625 20.6475 15.325 20.7225 15.4438 20.865L19.6875 25.9425C20.45 26.865 21.475 27.375 22.5625 27.375H22.675L24.55 25.125H22.5625Z" fill="#95411A"/>
<path d="M24.2375 10.5H22.5625C21.8938 10.5 21.2688 10.815 20.7938 11.3775L16.5438 16.4625C16.1188 16.9725 15.5563 17.2275 15 17.2275C14.4438 17.2275 13.8813 16.9725 13.4563 16.4625L9.20626 11.3775C8.73126 10.815 8.10626 10.5 7.43751 10.5H5.76251L7.01251 9H7.43751C8.43751 9 9.38126 9.465 10.0875 10.32L14.3375 15.3975C14.7063 15.84 15.2938 15.84 15.6625 15.3975L19.9125 10.32C20.6188 9.465 21.5625 9 22.5625 9H22.9875L24.2375 10.5ZM22.5625 25.5C21.8938 25.5 21.2688 25.185 20.7938 24.6225L16.5438 19.5375C15.6938 18.5175 14.3063 18.5175 13.4563 19.5375L9.20626 24.6225C8.73126 25.185 8.10626 25.5 7.43751 25.5H5.76251L7.01251 27H7.43751C8.43751 27 9.38126 26.535 10.0875 25.68L14.3375 20.6025C14.7063 20.16 15.2938 20.16 15.6625 20.6025L19.9125 25.68C20.6188 26.535 21.5625 27 22.5625 27H22.9875L24.2375 25.5H22.5625Z" fill="white"/>
</svg>
